<svg width="39" height="34" viewBox="0 0 39 34" fill="none" xmlns="http://www.w3.org/2000/svg">
<path d="M8.24039 9.45319L0.538299 16.1572C0.00448632 16.6222 0.00448632 17.3872 0.538299 17.8522L8.24039 24.5711C8.77421 25.0362 9.65292 25.0362 10.1871 24.5711C10.7214 24.1065 10.7214 23.3415 10.1871 22.8765L4.82871 18.2121H37.6171C38.3756 18.2121 38.9956 17.672 38.9956 17.0122C38.9956 16.3524 38.3756 15.8122 37.6171 15.8122H4.84577L10.2046 11.1479C10.4801 10.9081 10.6007 10.6081 10.6007 10.2929C10.6007 9.97806 10.463 9.67808 10.2046 9.43831C9.65292 8.98817 8.77421 8.98817 8.24039 9.45319Z" fill="black"/>
</svg>
