<svg width="32" height="24" viewBox="0 0 32 24" fill="none" xmlns="http://www.w3.org/2000/svg">
<path d="M1.15365 15.1121C0.406498 14.4578 0.0202908 13.5873 0.000759042 12.7109C-0.0185123 11.8348 0.329153 10.9506 1.04636 10.2692C1.76304 9.58827 2.71749 9.23582 3.67819 9.21824C4.63941 9.20019 5.60845 9.51631 6.35612 10.1711L12.8112 15.8357L25.6628 0.947255L26.1233 1.26764L25.6623 0.94583C25.699 0.902367 25.7407 0.865317 25.7871 0.835154C26.5517 0.231188 27.5113 -0.0414635 28.4494 0.00508675V0.00413675L28.4952 0.00793677C29.4387 0.0649371 30.3604 0.447315 31.0408 1.13987C31.733 1.84406 32.0469 2.73849 31.9945 3.61273H31.9956L31.9914 3.65453C31.9299 4.49956 31.525 5.32536 30.7911 5.94215L15.3678 23.0636L15.3688 23.0646C15.3399 23.0981 15.3074 23.1268 15.272 23.152C14.5498 23.7303 13.6378 24.0139 12.731 23.9996C11.8167 23.9851 10.9042 23.6681 10.1942 23.0458L1.15365 15.1121Z" fill="#F0F8FF"/>
</svg>
