<svg width="45" height="45" viewBox="0 0 45 45" fill="none" xmlns="http://www.w3.org/2000/svg">
<g clip-path="url(#clip0_55_1691)">
<path d="M2.53053 4.42138e-05H18.2337C18.6086 -0.000121585 18.9789 0.0844216 19.3173 0.247472C19.6557 0.410522 19.9536 0.647943 20.1892 0.942317C20.3763 1.16598 20.5203 1.42288 20.614 1.69983C20.7141 1.97305 20.765 2.26213 20.7642 2.55342V18.3282C20.7628 18.6731 20.6931 19.0142 20.5591 19.3315C20.4252 19.6488 20.2297 19.9358 19.9841 20.1758C19.5124 20.6309 18.8863 20.8873 18.2337 20.8926H2.53053C2.21057 20.8877 1.89463 20.8199 1.60035 20.6931C1.29093 20.5721 1.00869 20.3898 0.770298 20.1568C0.531907 19.9239 0.342209 19.6451 0.212414 19.337C0.0713711 19.0198 -0.00103863 18.6758 1.12556e-05 18.3282V2.55342C0.00389402 1.93677 0.225981 1.34181 0.626232 0.875804L0.732433 0.772339C0.949934 0.548471 1.20544 0.36575 1.48683 0.232841C1.81465 0.0821037 2.17028 0.00278057 2.53053 4.42138e-05ZM26.7664 24.1148H42.4805C42.8605 24.1126 43.2361 24.1972 43.5791 24.3624C43.9165 24.5269 44.214 24.7641 44.4507 25.0571C44.6332 25.2771 44.7769 25.5271 44.8755 25.7962C44.9756 26.0706 45.0265 26.3609 45.0256 26.6534V42.4282C45.0248 42.7701 44.9551 43.1083 44.8206 43.4222C44.6864 43.7389 44.4909 44.0253 44.2456 44.2647C44.0113 44.4925 43.7351 44.672 43.4326 44.7931C43.1353 44.9172 42.8168 44.9812 42.4951 44.9816H26.7664C26.4464 44.9793 26.1297 44.9167 25.8325 44.7968C25.5333 44.6769 25.2598 44.5 25.0269 44.2758C24.7796 44.0365 24.5817 43.7501 24.4446 43.4333C24.3068 43.1165 24.2357 42.7742 24.2359 42.4282V26.6719C24.2349 26.3649 24.2908 26.0603 24.4006 25.774C24.5062 25.4876 24.6612 25.2224 24.8584 24.9906L24.961 24.8871C25.1793 24.6636 25.4362 24.482 25.719 24.3513C26.0471 24.197 26.4044 24.1163 26.7664 24.1148ZM42.4805 26.6608H26.7664V42.4467C28.114 42.4467 42.4732 42.4467 42.4878 42.4467C42.4878 41.1164 42.4878 26.6682 42.4878 26.6608H42.4805ZM2.53053 24.1148H18.2337C18.6086 24.1147 18.9789 24.1992 19.3173 24.3623C19.6557 24.5253 19.9536 24.7627 20.1892 25.0571C20.3743 25.2753 20.5183 25.5257 20.614 25.7962C20.7142 26.0706 20.765 26.3609 20.7642 26.6534V42.4282C20.7634 42.7701 20.6936 43.1083 20.5591 43.4222C20.4278 43.7404 20.2319 44.0274 19.9841 44.2647C19.5124 44.7198 18.8863 44.9762 18.2337 44.9816H2.53053C2.21171 44.9796 1.89613 44.9169 1.60035 44.7968C1.2996 44.6778 1.0247 44.5009 0.791027 44.2758C0.5437 44.0373 0.346863 43.7507 0.212414 43.4333C0.0742886 43.1229 0.00194247 42.7869 1.12556e-05 42.4467V26.6719C0.000861182 26.365 0.0566907 26.0608 0.164806 25.774C0.271805 25.4875 0.428003 25.2223 0.626232 24.9906L0.732433 24.8871C0.949128 24.6633 1.20487 24.4816 1.48683 24.3513C1.81372 24.1974 2.16978 24.1167 2.53053 24.1148ZM18.2337 26.6608H2.53053V42.4467C3.87452 42.4467 18.2373 42.4467 18.2483 42.4467C18.2483 41.1164 18.2483 26.6682 18.2483 26.6608H18.2337ZM26.7664 4.42138e-05H42.4805C42.8605 -0.00221891 43.2361 0.0824255 43.5791 0.247622C43.9165 0.412133 44.214 0.649263 44.4507 0.942317C44.6351 1.16784 44.7789 1.42422 44.8755 1.69983C44.9756 1.97305 45.0264 2.26213 45.0256 2.55342V18.3282C45.0252 18.6714 44.9554 19.0108 44.8206 19.3259C44.6856 19.6421 44.4903 19.9284 44.2456 20.1684C44.0024 20.3964 43.7176 20.5746 43.407 20.6931C43.1092 20.8154 42.791 20.8794 42.4695 20.8816H26.7664C26.446 20.8801 26.1288 20.8161 25.8325 20.6931C25.5342 20.5731 25.2609 20.3976 25.0269 20.1758C24.7796 19.9365 24.5817 19.6501 24.4446 19.3333C24.3065 19.0152 24.2354 18.6717 24.2359 18.3245V2.55342C24.2352 2.2476 24.2911 1.94434 24.4006 1.65918C24.5055 1.37252 24.6606 1.10719 24.8584 0.875804L24.961 0.772339C25.18 0.548656 25.4367 0.365989 25.719 0.232841C26.048 0.0815959 26.4049 0.00226096 26.7664 4.42138e-05ZM42.4805 2.54603H26.7664V18.3393C28.114 18.3393 42.4732 18.3393 42.4878 18.3393C42.4878 17.009 42.4878 2.55711 42.4878 2.55342L42.4805 2.54603ZM18.2446 2.54603H2.53053V18.3319C3.87452 18.3319 18.2373 18.3319 18.2483 18.3319C18.2483 17.0016 18.2483 2.54972 18.2483 2.54603H18.2446Z" fill="black"/>
</g>
<defs>
<clipPath id="clip0_55_1691">
<rect width="45" height="45" fill="white"/>
</clipPath>
</defs>
</svg>
