<svg width="29" height="24" viewBox="0 0 29 24" fill="none" xmlns="http://www.w3.org/2000/svg">
<path fill-rule="evenodd" clip-rule="evenodd" d="M23.3053 0.391056C22.9457 0.125431 22.5319 -0.0171474 22.0689 0.00238386C21.6058 0.00238386 21.192 0.144962 20.857 0.432071L18.1255 2.68012L25.7782 8.54535L28.5344 6.25629C28.8694 5.99067 28.9974 5.64301 28.9974 5.27582C28.9974 4.90863 28.8176 4.56098 28.4827 4.31488L23.3053 0.391056ZM10.2068 21.4028C9.20187 21.6684 8.17231 21.9145 7.16492 22.1801C6.16 22.4457 5.15507 22.7114 4.12305 22.977C1.7265 23.5903 0.411227 23.9379 0.127976 23.9985C-0.155275 24.059 0.0245277 23.1821 0.618124 21.3422L2.52453 15.559L2.68216 15.4301L10.2093 21.3989L10.2068 21.4028ZM5.46788 13.1352L16.0565 4.38129L23.7093 10.225L12.9925 19.102L5.46788 13.1352Z" fill="#F0F8FF"/>
</svg>
