<svg width="29" height="21" viewBox="0 0 29 21" fill="none" xmlns="http://www.w3.org/2000/svg">
<g clip-path="url(#clip0_43_39)">
<path d="M0.429314 9.68646C1.10573 8.54705 1.81458 7.51093 2.54891 6.57809C5.87077 2.36583 9.81344 0.116059 13.8789 0.00308618C17.9351 -0.109886 22.0955 1.90748 25.8552 6.22949C26.754 7.26239 27.6227 8.41471 28.4589 9.69614C28.7276 10.1093 28.7415 10.7193 28.5122 11.1519C27.5555 13.0337 26.4552 14.6443 25.2529 15.9806C22.2438 19.3279 18.5883 20.974 14.8843 20.9999C11.1941 21.0225 7.45757 19.4312 4.2747 16.297C2.85237 14.8961 1.53892 13.1886 0.387617 11.1809C0.130486 10.729 0.155968 10.0932 0.429314 9.68646ZM14.4418 8.54059C14.5785 8.54059 14.7128 8.56964 14.8379 8.61806C14.7314 8.77945 14.6688 8.99571 14.6688 9.23134C14.6688 9.73487 14.9607 10.1416 15.3221 10.1416C15.5004 10.1416 15.6603 10.0447 15.7784 9.88335C15.8248 10.077 15.8479 10.2836 15.8479 10.4966C15.8479 11.5779 15.2178 12.4559 14.4418 12.4559C13.6658 12.4559 13.0357 11.5779 13.0357 10.4966C13.0357 9.41855 13.6658 8.54059 14.4418 8.54059ZM14.4418 3.49233C15.8294 3.49233 17.0872 4.27668 17.9976 5.5452C18.908 6.81372 19.4709 8.56318 19.4709 10.4999C19.4709 12.4333 18.908 14.186 17.9976 15.4545C17.0872 16.723 15.8317 17.5074 14.4418 17.5074C13.0542 17.5074 11.7964 16.723 10.886 15.4545C9.9756 14.186 9.41269 12.4365 9.41269 10.4999C9.41269 8.56641 9.9756 6.81372 10.886 5.5452C11.7964 4.27668 13.0542 3.49233 14.4418 3.49233ZM16.8625 7.12682C16.244 6.265 15.3869 5.72919 14.4418 5.72919C13.4967 5.72919 12.6396 6.26177 12.0211 7.12682C11.4026 7.98864 11.018 9.18292 11.018 10.4999C11.018 11.8168 11.4002 13.0111 12.0211 13.8729C12.6396 14.7347 13.4967 15.2705 14.4418 15.2705C15.3869 15.2705 16.244 14.7379 16.8625 13.8729C17.481 13.0111 17.8656 11.8168 17.8656 10.4999C17.8656 9.18292 17.481 7.98864 16.8625 7.12682ZM3.65851 8.27268C3.12108 8.95375 2.60219 9.68968 2.10646 10.474C3.04927 11.9976 4.09865 13.3145 5.22215 14.4216C8.12703 17.2782 11.5253 18.7307 14.8796 18.7114C18.22 18.6888 21.5164 17.204 24.2313 14.186C25.1579 13.1563 26.015 11.9459 26.7864 10.5547C26.1401 9.61545 25.4822 8.76654 24.8151 7.99832C21.3658 4.03782 17.583 2.19153 13.9113 2.29159C10.2489 2.39488 6.67922 4.4413 3.65851 8.27268Z" fill="#F0F8FF"/>
</g>
<defs>
<clipPath id="clip0_43_39">
<rect width="28.4651" height="21" fill="white" transform="translate(0.209229)"/>
</clipPath>
</defs>
</svg>
