<svg width="45" height="45" viewBox="0 0 45 45" fill="none" xmlns="http://www.w3.org/2000/svg">
<g clip-path="url(#clip0_25_584)">
<path d="M19.0525 13.6915C19.0525 12.7296 19.8332 11.9498 20.7961 11.9498C21.7591 11.9498 22.5399 12.7296 22.5399 13.6915V24.2933L29.8047 27.4831C30.6847 27.8702 31.0843 28.8969 30.6968 29.7759C30.3093 30.6551 29.2814 31.0542 28.4014 30.6672L20.1828 27.0585C19.5224 26.8106 19.0525 26.1739 19.0525 25.4277V13.6915ZM0.810237 13.4804C0.76158 13.3111 0.736965 13.1359 0.737112 12.9597L0.751263 6.51452C0.751263 5.47525 1.59475 4.63273 2.6352 4.63273C3.67556 4.63273 4.51905 5.47525 4.51905 6.51452L4.5136 8.96036C5.63377 7.47205 6.93563 6.12929 8.38896 4.96326C9.86315 3.78054 11.5146 2.76455 13.3268 1.95731C19.0048 -0.572108 25.1674 -0.56526 30.5399 1.49062C35.9164 3.54799 40.5089 7.65658 43.0408 13.3272C45.5731 18.9983 45.5662 25.1541 43.5078 30.5206C41.5261 35.6876 37.6432 40.129 32.2956 42.7106L32.2289 42.7431L32.1853 42.7642L32.1621 42.7751C31.4746 43.1048 30.7709 43.3998 30.0538 43.6588C25.9266 45.1501 21.4971 45.3939 17.3152 44.4101C13.2403 43.4516 9.39539 41.3312 6.28723 38.0683C3.98423 35.6507 2.30868 32.8582 1.2685 29.8965C0.201398 26.859 -0.199504 23.6277 0.092962 20.4218C0.176898 19.4944 0.998236 18.8106 1.92662 18.8946C2.85501 18.9784 3.53968 19.7987 3.45566 20.7261C3.20851 23.4332 3.54487 26.184 4.45911 28.7857C5.34214 31.3 6.7701 33.6765 8.73648 35.7408C11.3721 38.5073 14.6304 40.305 18.0831 41.1171C21.6411 41.9543 25.4032 41.749 28.9022 40.485C30.1468 40.0352 31.3643 39.4479 32.5323 38.7231C33.6929 38.0019 34.7765 37.1639 35.7662 36.2223C35.8054 36.1852 35.8456 36.1504 35.8873 36.1177C37.8623 34.18 39.3717 31.8516 40.3436 29.3173C42.0962 24.7486 42.1053 19.5154 39.9562 14.7024C37.8068 9.88883 33.905 6.39977 29.3351 4.65116C24.7612 2.90088 19.5224 2.89175 14.7035 5.03841C13.1672 5.72282 11.7634 6.58703 10.507 7.59504C9.2622 8.59355 8.14855 9.74504 7.1925 11.0222L8.69508 10.9374C9.73544 10.8805 10.6254 11.6767 10.6823 12.7159C10.7392 13.755 9.94225 14.644 8.9018 14.7009L2.7738 15.047C1.80542 15.0999 0.967562 14.4136 0.810237 13.4804Z" fill="black"/>
</g>
<defs>
<clipPath id="clip0_25_584">
<rect width="45" height="45" fill="white"/>
</clipPath>
</defs>
</svg>
