<svg width="40" height="45" viewBox="0 0 40 45" fill="none" xmlns="http://www.w3.org/2000/svg">
<g clip-path="url(#clip0_66_2996)">
<path d="M4.39421 21.3365H21.9837C22.7407 21.3365 23.3543 21.8577 23.3543 22.5004C23.3543 23.1434 22.7407 23.6646 21.9837 23.6646H4.39508L10.1395 29.1962C10.6386 29.6759 10.5859 30.4087 10.0215 30.8328C9.45655 31.2572 8.59373 31.2125 8.09417 30.7328L0.342339 23.2683C-0.121517 22.823 -0.109322 22.1591 0.34713 21.7266L8.0946 14.2676C8.59373 13.7875 9.45698 13.7428 10.0219 14.1676C10.5864 14.5917 10.6391 15.3248 10.1399 15.8046L4.39421 21.3365ZM9.14557 8.51477C9.14557 9.15784 8.52579 9.67896 7.76141 9.67896C6.99659 9.67896 6.37681 9.15784 6.37681 8.51477V3.29919C6.37681 2.39282 6.81976 1.56738 7.53013 0.970093C8.24138 0.372437 9.22309 0.000366211 10.3002 0.000366211H36.0762C37.1542 0.000366211 38.1363 0.371704 38.8475 0.96936C39.5575 1.56628 40 2.39062 40 3.29919V41.7008C40 42.609 39.5588 43.4341 38.8484 44.0317C38.138 44.629 37.1568 45 36.0762 45H10.3006C9.22092 45 8.24007 44.6279 7.5297 44.031C6.81845 43.433 6.37725 42.6068 6.37725 41.7008V36.4856C6.37725 35.8429 6.99703 35.3218 7.76184 35.3218C8.52623 35.3218 9.14601 35.8429 9.14601 36.4856V41.7008C9.14601 41.9652 9.2771 42.208 9.48791 42.3853C9.69784 42.5618 9.98617 42.672 10.3011 42.672H36.0762C36.3924 42.672 36.6811 42.5621 36.8906 42.3856C37.101 42.2095 37.2312 41.9667 37.2312 41.7008V3.29919C37.2312 3.03406 37.1001 2.79199 36.8902 2.61548C36.6794 2.43823 36.3906 2.328 36.0762 2.328H10.3006C9.98704 2.328 9.69915 2.4386 9.48834 2.61584C9.2771 2.79309 9.14557 3.03552 9.14557 3.29919L9.14557 8.51477Z" fill="black"/>
</g>
<defs>
<clipPath id="clip0_66_2996">
<rect width="40" height="45" fill="white" transform="matrix(-1 0 0 -1 40 45)"/>
</clipPath>
</defs>
</svg>
