<svg width="45" height="45" viewBox="0 0 45 45" fill="none" xmlns="http://www.w3.org/2000/svg">
<g clip-path="url(#clip0_40_876)">
<path d="M19.0525 13.6913C19.0525 12.7295 19.8332 11.9497 20.7961 11.9497C21.7591 11.9497 22.5399 12.7295 22.5399 13.6913V24.2932L29.8047 27.483C30.6847 27.87 31.0843 28.8967 30.6968 29.7758C30.3093 30.6549 29.2814 31.054 28.4014 30.667L20.1828 27.0584C19.5224 26.8105 19.0525 26.1737 19.0525 25.4276V13.6913ZM0.810237 13.4803C0.76158 13.311 0.736965 13.1357 0.737112 12.9596L0.751263 6.51437C0.751263 5.47511 1.59475 4.63258 2.6352 4.63258C3.67556 4.63258 4.51905 5.47511 4.51905 6.51437L4.5136 8.96021C5.63377 7.4719 6.93563 6.12914 8.38896 4.96311C9.86315 3.7804 11.5146 2.7644 13.3268 1.95716C19.0048 -0.572255 25.1674 -0.565407 30.5399 1.49047C35.9164 3.54784 40.5089 7.65644 43.0408 13.3271C45.5731 18.9982 45.5662 25.154 43.5078 30.5204C41.5261 35.6874 37.6432 40.1288 32.2956 42.7105L32.2289 42.743L32.1853 42.764L32.1621 42.775C31.4746 43.1047 30.7709 43.3996 30.0538 43.6587C25.9266 45.1499 21.4971 45.3938 17.3152 44.4099C13.2403 43.4514 9.39539 41.331 6.28723 38.0681C3.98423 35.6505 2.30868 32.858 1.2685 29.8964C0.201398 26.8588 -0.199504 23.6276 0.092962 20.4217C0.176898 19.4943 0.998236 18.8105 1.92662 18.8944C2.85501 18.9783 3.53968 19.7986 3.45566 20.726C3.20851 23.4331 3.54487 26.1838 4.45911 28.7856C5.34214 31.2998 6.7701 33.6763 8.73648 35.7406C11.3721 38.5072 14.6304 40.3048 18.0831 41.117C21.6411 41.9542 25.4032 41.7488 28.9022 40.4848C30.1468 40.0351 31.3643 39.4477 32.5323 38.7229C33.6929 38.0018 34.7765 37.1638 35.7662 36.2221C35.8054 36.1851 35.8456 36.1502 35.8873 36.1176C37.8623 34.1799 39.3717 31.8514 40.3436 29.3172C42.0962 24.7485 42.1053 19.5153 39.9562 14.7022C37.8068 9.88869 33.905 6.39963 29.3351 4.65102C24.7612 2.90074 19.5224 2.89161 14.7035 5.03826C13.1672 5.72267 11.7634 6.58688 10.507 7.5949C9.2622 8.5934 8.14855 9.7449 7.1925 11.0221L8.69508 10.9373C9.73544 10.8804 10.6254 11.6765 10.6823 12.7157C10.7392 13.7549 9.94225 14.6439 8.9018 14.7007L2.7738 15.0468C1.80542 15.0998 0.967562 14.4134 0.810237 13.4803Z" fill="#F0F8FF"/>
</g>
<defs>
<clipPath id="clip0_40_876">
<rect width="45" height="45" fill="white"/>
</clipPath>
</defs>
</svg>
