<svg width="45" height="45" viewBox="0 0 45 45" fill="none" xmlns="http://www.w3.org/2000/svg">
<mask id="mask0_55_1872" style="mask-type:luminance" maskUnits="userSpaceOnUse" x="1" y="0" width="43" height="45">
<path d="M1.8136 0H43.2136V45H1.8136V0Z" fill="white"/>
</mask>
<g mask="url(#mask0_55_1872)">
<path d="M43.2117 40.9364V40.4817C43.2117 37.6908 42.6642 34.9819 41.5842 32.43C40.5417 29.9672 39.0497 27.7552 37.1494 25.8567C35.2495 23.9578 33.0366 22.4672 30.5714 21.4252C30.4092 21.3567 30.2461 21.2906 30.0821 21.2259C30.3924 20.9723 30.691 20.7028 30.9774 20.4169C32.0756 19.3195 32.9381 18.0408 33.541 16.6163C34.1658 15.1402 34.4827 13.5736 34.4827 11.9602C34.4827 10.3463 34.1658 8.77969 33.541 7.30359C32.9381 5.87953 32.0756 4.60031 30.9774 3.50297C29.8786 2.40516 28.5989 1.54313 27.1735 0.940781C25.6964 0.316406 24.1289 0 22.5146 0C20.8997 0 19.3322 0.316406 17.8552 0.940781C16.4297 1.54313 15.15 2.40516 14.0517 3.50297C12.953 4.60031 12.0905 5.87953 11.4877 7.30359C10.8628 8.77969 10.546 10.3463 10.546 11.9602C10.546 13.5736 10.8628 15.1402 11.4877 16.6163C12.0905 18.0408 12.9535 19.3195 14.0517 20.4169C14.3377 20.7028 14.6363 20.9723 14.9466 21.2259C14.7825 21.2906 14.6189 21.3567 14.4572 21.4252C11.9921 22.4672 9.77908 23.9578 7.87924 25.8567C5.97893 27.7552 4.48689 29.9672 3.44439 32.43C2.36439 34.9819 1.81689 37.6908 1.81689 40.4817V40.9364C1.81689 43.0594 3.44768 44.8088 5.52283 45.0005L39.7875 44.9644L39.7997 44.963C40.1564 44.9264 40.5019 44.8205 40.8178 44.6517C42.2288 44.0081 43.2117 42.585 43.2117 40.9364ZM13.6931 15.6839C13.1939 14.5045 12.9408 13.2516 12.9408 11.9602C12.9408 10.6683 13.1939 9.41578 13.6931 8.23594C14.1755 7.09688 14.8655 6.07359 15.7449 5.19516C16.6242 4.31672 17.648 3.62672 18.788 3.14484C19.9683 2.64609 21.2217 2.39297 22.5146 2.39297C23.8069 2.39297 25.0603 2.64609 26.2406 3.14484C27.3806 3.62672 28.4044 4.31672 29.2838 5.19516C30.1631 6.07359 30.8531 7.09688 31.3355 8.23594C31.8347 9.41578 32.0878 10.6683 32.0878 11.9602C32.0878 13.2516 31.8347 14.5045 31.3355 15.6839C30.8531 16.823 30.1631 17.8463 29.2838 18.7247C28.4044 19.6031 27.3806 20.2931 26.2406 20.775C25.0603 21.2738 23.8069 21.5269 22.5146 21.5269C21.2217 21.5269 19.9683 21.2738 18.788 20.775C17.648 20.2931 16.6242 19.6031 15.7449 18.7247C14.8655 17.8463 14.1755 16.823 13.6931 15.6839ZM40.8169 40.9364C40.8169 41.8673 40.0589 42.6248 39.127 42.6248H5.90111C4.96971 42.6248 4.21174 41.8673 4.21174 40.9364V40.4817C4.21174 38.0128 4.69549 35.6175 5.65033 33.3623C6.57189 31.1845 7.89143 29.2284 9.57236 27.5489C11.2533 25.8689 13.2103 24.5503 15.39 23.6292C15.8705 23.4263 16.3641 23.242 16.8572 23.0817C17.0288 23.0255 17.2041 22.9716 17.3771 22.9209C17.4417 22.9022 17.5031 22.8783 17.5617 22.8502C17.6588 22.8942 17.7563 22.9373 17.8547 22.9791C19.3317 23.6034 20.8997 23.9198 22.5141 23.9198C24.1289 23.9198 25.6964 23.6034 27.1735 22.9791C27.2719 22.9373 27.3699 22.8942 27.4669 22.8502C27.5255 22.8783 27.5869 22.9022 27.6516 22.9209C28.3219 23.1169 28.9903 23.355 29.6386 23.6292C31.8183 24.5503 33.7753 25.8689 35.4563 27.5489C37.1367 29.2284 38.4567 31.1845 39.3783 33.3623C40.3327 35.6175 40.8169 38.0128 40.8169 40.4817V40.9364Z" fill="#F0F8FF"/>
</g>
</svg>
